<?xml version="1.0" encoding="UTF-8" standalone="no"?>
<svg
   xmlns:dc="http://purl.org/dc/elements/1.1/"
   xmlns:cc="http://creativecommons.org/ns#"
   xmlns:rdf="http://www.w3.org/1999/02/22-rdf-syntax-ns#"
   xmlns:svg="http://www.w3.org/2000/svg"
   xmlns="http://www.w3.org/2000/svg"
   xmlns:sodipodi="http://sodipodi.sourceforge.net/DTD/sodipodi-0.dtd"
   xmlns:inkscape="http://www.inkscape.org/namespaces/inkscape"
   viewBox="0 0 1854.54 295"
   preserveAspectRatio="xMinYMid"
   width="1854.54"
   height="295"
   version="1.1"
   id="svg14"
   sodipodi:docname="select-bg-full-white.svg"
   inkscape:version="1.0.1 (c497b03c, 2020-09-10)">
  <metadata
     id="metadata20">
    <rdf:RDF>
      <cc:Work
         rdf:about="">
        <dc:format>image/svg+xml</dc:format>
        <dc:type
           rdf:resource="http://purl.org/dc/dcmitype/StillImage" />
        <dc:title />
      </cc:Work>
    </rdf:RDF>
  </metadata>
  <defs
     id="defs18" />
  <sodipodi:namedview
     pagecolor="#ffffff"
     bordercolor="#666666"
     borderopacity="1"
     objecttolerance="10"
     gridtolerance="10"
     guidetolerance="10"
     inkscape:pageopacity="0"
     inkscape:pageshadow="2"
     inkscape:window-width="1402"
     inkscape:window-height="847"
     id="namedview16"
     showgrid="false"
     inkscape:pagecheckerboard="true"
     inkscape:zoom="1.1401659"
     inkscape:cx="1560.661"
     inkscape:cy="186.68649"
     inkscape:window-x="38"
     inkscape:window-y="25"
     inkscape:window-maximized="1"
     inkscape:current-layer="svg14"
     inkscape:document-rotation="0" />
  <path
     d="M1825.1,145.7l6.9,6.9c0.1,0.1,0.2,0.1,0.3,0.1c0.1,0,0.2,0,0.3-0.1l6.9-6.9c0.1-0.1,0.1-0.2,0.1-0.3c0-0.1,0-0.2-0.1-0.3l-0.7-0.7c-0.1-0.1-0.2-0.1-0.3-0.1s-0.2,0-0.3,0.1l-5.8,5.8l-5.8-5.8c-0.1-0.1-0.2-0.1-0.3-0.1c-0.1,0-0.2,0-0.3,0.1l-0.7,0.7c-0.1,0.1-0.1,0.2-0.1,0.3C1824.9,145.5,1825,145.6,1825.1,145.7z"
     fill="#000"
     id="path10" />
  <rect
     width="1810"
     height="295"
     fill="#fff"
     id="rect12"
     style="fill:#eceff1;fill-opacity:1" />
  <rect
     width="1810"
     height="295"
     fill="#fff"
     id="rect845"
     style="fill:#ffffff;fill-opacity:1" />
</svg>
